<svg width="48" height="48" viewBox="0 0 48 48" fill="none" xmlns="http://www.w3.org/2000/svg">
<path d="M27.999 21.0005V16.0005M19.999 21.0005V16.0005M23.999 44.0005C35.045 44.0005 43.999 35.0465 43.999 24.0005C43.999 12.9545 35.045 4.00049 23.999 4.00049C12.953 4.00049 3.99902 12.9545 3.99902 24.0005C3.99902 35.0465 12.953 44.0005 23.999 44.0005Z" stroke="#F4F4F4" stroke-width="4" stroke-linecap="round" stroke-linejoin="round"/>
<path d="M23.999 32.0005C26.1208 32.0005 28.1556 31.1576 29.6559 29.6573C31.1562 28.1571 31.999 26.1222 31.999 24.0005V21.0005H15.999V24.0005C15.999 26.1222 16.8419 28.1571 18.3422 29.6573C19.8425 31.1576 21.8773 32.0005 23.999 32.0005ZM23.999 32.0005V44.0005" stroke="#F4F4F4" stroke-width="4" stroke-linecap="round" stroke-linejoin="round"/>
</svg>
