<svg width="40" height="40" viewBox="0 0 40 40" fill="none" xmlns="http://www.w3.org/2000/svg">
<path d="M12.999 20.0005C14.399 20.0005 15.5657 19.4918 16.499 18.4745C17.4324 17.4572 18.0824 16.2492 18.449 14.8505L15.549 14.1505C15.3824 14.8838 15.0904 15.5425 14.673 16.1265C14.2557 16.7105 13.6977 17.0018 12.999 17.0005C12.299 17.0005 11.741 16.7092 11.325 16.1265C10.909 15.5438 10.617 14.8852 10.449 14.1505L7.54902 14.8505C7.91569 16.2505 8.56569 17.4592 9.49902 18.4765C10.4324 19.4938 11.599 20.0018 12.999 20.0005ZM19.999 31.0005C21.299 31.0005 22.549 30.7092 23.749 30.1265C24.949 29.5438 26.0657 28.6685 27.099 27.5005L24.899 25.5005C24.1657 26.3005 23.3824 26.9092 22.549 27.3265C21.7157 27.7438 20.8657 27.9512 19.999 27.9485C19.1324 27.9485 18.2824 27.7405 17.449 27.3245C16.6157 26.9085 15.8324 26.3005 15.099 25.5005L12.899 27.5005C13.9657 28.6672 15.091 29.5425 16.275 30.1265C17.459 30.7105 18.7004 31.0018 19.999 31.0005ZM26.999 20.0005C28.399 20.0005 29.5657 19.4918 30.499 18.4745C31.4324 17.4572 32.0824 16.2492 32.449 14.8505L29.549 14.1505C29.3824 14.8838 29.091 15.5425 28.675 16.1265C28.259 16.7105 27.7004 17.0018 26.999 17.0005C26.299 17.0005 25.741 16.7092 25.325 16.1265C24.909 15.5438 24.617 14.8852 24.449 14.1505L21.549 14.8505C21.9157 16.2505 22.5657 17.4592 23.499 18.4765C24.4324 19.4938 25.599 20.0018 26.999 20.0005ZM19.999 40.0005C17.2324 40.0005 14.6324 39.4752 12.199 38.4245C9.76569 37.3738 7.64902 35.9492 5.84902 34.1505C4.04902 32.3505 2.62436 30.2338 1.57502 27.8005C0.52569 25.3672 0.000356771 22.7672 -0.000976562 20.0005C-0.000976562 17.2338 0.524357 14.6338 1.57502 12.2005C2.62569 9.76716 4.05036 7.65049 5.84902 5.85049C7.64902 4.05049 9.76569 2.62582 12.199 1.57649C14.6324 0.527155 17.2324 0.00182161 19.999 0.000488281C22.7657 0.000488281 25.3657 0.525822 27.799 1.57649C30.2324 2.62716 32.349 4.05182 34.149 5.85049C35.949 7.65049 37.3744 9.76716 38.425 12.2005C39.4757 14.6338 40.0004 17.2338 39.999 20.0005C39.999 22.7672 39.4737 25.3672 38.423 27.8005C37.3724 30.2338 35.9477 32.3505 34.149 34.1505C32.349 35.9505 30.2324 37.3758 27.799 38.4265C25.3657 39.4772 22.7657 40.0018 19.999 40.0005ZM19.999 36.0005C24.4657 36.0005 28.249 34.4505 31.349 31.3505C34.449 28.2505 35.999 24.4672 35.999 20.0005C35.999 15.5338 34.449 11.7505 31.349 8.65049C28.249 5.55049 24.4657 4.00049 19.999 4.00049C15.5324 4.00049 11.749 5.55049 8.64902 8.65049C5.54902 11.7505 3.99902 15.5338 3.99902 20.0005C3.99902 24.4672 5.54902 28.2505 8.64902 31.3505C11.749 34.4505 15.5324 36.0005 19.999 36.0005Z" fill="#F4F4F4"/>
</svg>
